<svg width="200" height="43" viewBox="0 0 200 43" fill="none" xmlns="http://www.w3.org/2000/svg">
<g clip-path="url(#clip0_1_114)">
<g clip-path="url(#clip1_1_114)">
<g clip-path="url(#clip2_1_114)">
<g clip-path="url(#clip3_1_114)">
<g clip-path="url(#clip4_1_114)">
<g clip-path="url(#clip5_1_114)">
<g clip-path="url(#clip6_1_114)">
<path d="M2.34479 26.6658C1.918 26.6658 1.55008 26.5215 1.24103 26.2331C0.931973 25.9476 0.770088 25.5914 0.755371 25.1646C0.755371 24.782 0.877521 24.4391 1.12182 24.1359C1.36318 23.8357 1.66782 23.6562 2.03574 23.5973C2.05045 21.0366 2.0431 17.7915 2.01366 13.8621C1.66046 13.7885 1.36612 13.6119 1.13065 13.3323C0.895181 13.0527 0.777446 12.7215 0.777446 12.3389C0.777446 11.9121 0.931973 11.5515 1.24103 11.2572C1.55008 10.9629 1.918 10.8157 2.34479 10.8157L4.8393 10.8378C5.26609 10.8378 5.62665 10.9923 5.92099 11.3014C6.21532 11.6104 6.36249 11.9783 6.36249 12.4051C6.36249 12.773 6.24181 13.0968 6.00046 13.3764C5.75616 13.6561 5.45005 13.8327 5.08213 13.9062C5.12628 17.7768 5.14099 20.985 5.12628 23.5311C5.4942 23.5899 5.80031 23.7592 6.04461 24.0388C6.28596 24.3184 6.414 24.6422 6.42872 25.0101C6.42872 25.4369 6.28596 25.8048 6.00046 26.1139C5.71201 26.4229 5.35439 26.5848 4.9276 26.5995L2.34479 26.6658ZM24.7071 25.1205C24.6923 25.5473 24.5305 25.9078 24.2214 26.2022C23.9123 26.4965 23.5444 26.6363 23.1176 26.6216C22.6908 26.6069 22.3303 26.445 22.0359 26.1359C21.7416 25.8269 21.6018 25.459 21.6165 25.0322C21.6459 24.0756 21.6312 21.25 21.5724 16.5553C20.4833 17.9239 19.409 19.3883 18.3494 20.9483C18.0992 21.3015 17.7681 21.5178 17.356 21.5973C16.9439 21.6797 16.5613 21.6032 16.2081 21.3677C16.1639 21.3383 16.1271 21.3088 16.0977 21.2794C15.9358 21.1764 15.796 21.0513 15.6783 20.9041L12.2787 16.6215C12.2934 16.6509 12.2963 18.0593 12.2875 20.8467C12.2816 23.637 12.2787 25.0395 12.2787 25.0543C12.2787 25.481 12.1271 25.8446 11.8239 26.1448C11.5237 26.4479 11.1602 26.5995 10.7334 26.5995C10.3066 26.5995 9.94163 26.4479 9.63846 26.1448C9.33824 25.8446 9.18813 25.481 9.18813 25.0543C9.18813 24.4362 9.19107 23.3986 9.19696 21.9416C9.20579 20.4847 9.2102 19.3588 9.2102 18.5641C9.2102 17.7694 9.19549 16.7834 9.16605 15.606C9.13662 14.5611 9.08511 13.4795 9.01153 12.361C8.98209 11.9342 9.10719 11.5589 9.38681 11.2351C9.66643 10.9114 10.0196 10.7348 10.4464 10.7053C10.6672 10.6906 10.8732 10.72 11.0645 10.7936C11.4766 10.8525 11.8077 11.0512 12.0579 11.3897L16.9586 17.5487C18.548 15.3411 20.1669 13.3544 21.8152 11.5883C22.1242 11.0585 22.5805 10.801 23.1839 10.8157C23.6106 10.8304 23.9712 10.9923 24.2655 11.3014C24.5599 11.6104 24.6997 11.9783 24.685 12.4051C24.6408 13.8032 24.6408 15.9401 24.685 18.8158C24.7291 21.6944 24.7365 23.796 24.7071 25.1205ZM26.6055 25.6944C26.4289 25.2971 26.4216 24.9071 26.5835 24.5245L31.5283 11.787C31.6461 11.5074 31.83 11.2793 32.0802 11.1027C32.3304 10.9261 32.61 10.8304 32.9191 10.8157C33.2428 10.7568 33.5622 10.8113 33.8771 10.9791C34.195 11.1498 34.4349 11.3897 34.5968 11.6987L36.2303 15.7606L38.1509 20.5068L39.6741 24.4803C39.836 24.8777 39.8316 25.2706 39.6608 25.6591C39.4931 26.0506 39.2061 26.3273 38.7999 26.4892C38.3967 26.651 37.9964 26.6466 37.599 26.4759C37.2017 26.3081 36.922 26.0329 36.7602 25.6503L35.4798 22.7364C33.8315 22.6922 32.1979 22.7069 30.5791 22.7805L29.4974 25.6944C29.3178 26.0771 29.0309 26.3523 28.6365 26.5201C28.2391 26.6908 27.8417 26.6908 27.4444 26.5201C27.047 26.3523 26.7674 26.0771 26.6055 25.6944ZM31.8594 19.6237C32.4187 19.6237 33.2281 19.6237 34.2877 19.6237L33.1177 16.4449L31.8594 19.6237ZM53.7537 24.0609C53.0473 24.9144 52.2305 25.5576 51.3034 25.9903C50.3762 26.4259 49.4417 26.6407 48.4998 26.6348C47.5579 26.626 46.6308 26.4597 45.7183 26.1359C44.8059 25.8122 43.9744 25.3192 43.2238 24.6569C42.4732 23.9946 41.8772 23.2294 41.4357 22.3611C40.8765 21.2867 40.5895 20.1638 40.5748 18.9924C40.56 17.8239 40.7661 16.754 41.1929 15.7826C41.6049 14.7966 42.1936 13.921 42.9589 13.1557C43.7389 12.361 44.6072 11.7576 45.5638 11.3455C46.5351 10.9187 47.6094 10.7274 48.7868 10.7716C49.9641 10.8157 51.0973 11.1615 52.1864 11.8091C52.4807 11.9563 52.7427 12.1211 52.9722 12.3036C53.1989 12.489 53.4152 12.6921 53.6213 12.9129C53.8273 13.1336 53.9818 13.3058 54.0848 13.4294C54.1879 13.556 54.3424 13.7591 54.5484 14.0387C54.7545 14.3183 54.8869 14.4949 54.9458 14.5685C55.196 14.907 55.2916 15.2852 55.2328 15.7032C55.1739 16.1241 54.9752 16.4596 54.6367 16.7098C54.2982 16.96 53.923 17.0556 53.5109 16.9968C53.0988 16.9379 52.7603 16.7392 52.4954 16.4007L52.0539 15.8268L51.7007 15.3411C51.6418 15.2528 51.5506 15.1425 51.427 15.01C51.3004 14.8776 51.1827 14.7701 51.0738 14.6877C50.9619 14.6082 50.8251 14.517 50.6632 14.414C49.633 13.8842 48.6396 13.7031 47.683 13.8709C46.7264 14.0416 45.8802 14.5096 45.1443 15.2749C44.3791 16.0402 43.9008 16.9261 43.7095 17.9328C43.5181 18.9423 43.6579 19.9475 44.1289 20.9483C44.6145 21.9049 45.3106 22.6113 46.2172 23.0675C47.1208 23.5237 48.0509 23.6665 49.0075 23.4957C49.9641 23.328 50.7588 22.8614 51.3917 22.0962C51.686 21.7577 51.8552 21.4854 51.8994 21.2794C51.9288 21.1764 51.9509 21.0807 51.9656 20.9924C51.5388 20.9777 50.7294 20.9998 49.5373 21.0586C49.1105 21.0733 48.7426 20.9409 48.4336 20.6613C48.1245 20.3817 47.9626 20.0285 47.9479 19.6017C47.9332 19.1749 48.0656 18.807 48.3453 18.4979C48.6249 18.1888 48.9781 18.027 49.4049 18.0122C50.5969 17.9681 51.9435 17.946 53.4447 17.946C53.8714 17.946 54.2394 18.1005 54.5484 18.4096C54.8722 18.7187 55.0267 19.1013 55.012 19.5575V20.0652C55.0267 20.4184 55.0238 20.7672 55.0032 21.1116C54.9796 21.4589 54.9384 21.765 54.8795 22.0299C54.7029 22.6922 54.3277 23.3692 53.7537 24.0609ZM68.3013 26.6216C66.1232 26.6216 63.1504 26.5995 59.3829 26.5554C59.0886 26.5554 58.8192 26.47 58.5749 26.2993C58.3336 26.1315 58.154 25.9226 58.0363 25.6724C57.8597 25.4075 57.7714 25.1205 57.7714 24.8114C57.7861 24.2963 57.7788 22.2213 57.7493 18.5862C57.7346 15.9372 57.8008 13.8547 57.948 12.3389C57.9627 12.1476 58.0069 11.971 58.0805 11.8091C58.1982 11.5148 58.3822 11.2749 58.6323 11.0894C58.8825 10.9069 59.1695 10.8083 59.4933 10.7936C60.5676 10.7789 62.0172 10.7745 63.8421 10.7804C65.667 10.7892 67.1166 10.7863 68.1909 10.7716C68.6177 10.7716 68.9812 10.9187 69.2815 11.2131C69.5846 11.5074 69.7362 11.8635 69.7362 12.2815C69.7362 12.7024 69.5935 13.063 69.3079 13.3632C69.0195 13.6664 68.6619 13.8179 68.2351 13.8179C67.4109 13.8179 66.1821 13.8135 64.5485 13.8047C62.9149 13.7988 61.6861 13.8032 60.8619 13.8179C60.8178 14.7157 60.7884 15.7753 60.7736 16.9968C61.4801 16.9821 63.6581 16.9747 67.3079 16.9747C67.7347 16.9747 68.0982 17.1219 68.3984 17.4162C68.7016 17.7105 68.8532 18.0667 68.8532 18.4847C68.8532 18.9056 68.7016 19.2661 68.3984 19.5663C68.0982 19.8695 67.7347 20.0211 67.3079 20.0211C63.6434 20.0211 61.4727 20.0285 60.7957 20.0432C60.8252 21.6915 60.8325 22.8541 60.8178 23.5311C63.8053 23.5605 66.2998 23.5752 68.3013 23.5752C68.7281 23.5752 69.0887 23.7224 69.383 24.0167C69.6773 24.3111 69.8245 24.6716 69.8245 25.0984C69.8245 25.5252 69.6773 25.8858 69.383 26.1801C69.0887 26.4744 68.7281 26.6216 68.3013 26.6216Z" fill="#6B7280"/>
<path d="M75.1005 26.6216C74.7179 26.6805 74.3794 26.5922 74.0851 26.3567C73.7907 26.1212 73.6068 25.8122 73.5332 25.4295C73.2094 24.0903 72.687 22.0447 71.9658 19.2926C71.3183 16.7319 70.7517 14.4876 70.266 12.5596C70.1777 12.1476 70.2513 11.7649 70.4868 11.4117C70.7223 11.0585 71.046 10.8378 71.4581 10.7495C71.8702 10.6612 72.2528 10.7348 72.606 10.9702C72.9592 11.2057 73.18 11.5295 73.2683 11.9415C73.7098 13.8842 74.4236 16.8496 75.4096 20.8379C76.4986 17.8651 77.6171 14.826 78.765 11.7208C78.8828 11.4264 79.0741 11.1954 79.339 11.0276C79.6039 10.8569 79.8909 10.7715 80.1999 10.7715C80.5531 10.7715 80.8769 10.8775 81.1712 11.0894C81.4656 11.3043 81.7452 12.0151 82.0101 13.2219L83.5774 17.659L84.5488 20.9924C84.6665 20.6245 84.9947 19.3073 85.5333 17.0409C86.069 14.7745 86.5429 13.0232 86.955 11.787C87.0727 11.3897 87.3199 11.088 87.6967 10.8819C88.0705 10.6759 88.4605 10.6317 88.8667 10.7495C89.2699 10.8672 89.5746 11.113 89.7806 11.4868C89.9866 11.8635 90.0308 12.2579 89.913 12.67C89.501 13.8915 89.0815 15.3558 88.6548 17.063C88.228 18.7702 87.9483 19.8518 87.8159 20.3081L86.955 22.935L86.2265 25.4295C86.1382 25.7386 85.9807 25.9961 85.7541 26.2022C85.5245 26.4082 85.2552 26.5259 84.9461 26.5554C84.5635 26.6584 84.2073 26.6216 83.8777 26.445C83.5451 26.2684 83.2978 25.9814 83.1359 25.5841C82.4148 23.5384 81.7158 21.4413 81.0388 19.2926C80.6709 18.1447 80.3324 17.2028 80.0233 16.467L76.69 25.6282C76.5575 25.9667 76.3485 26.2272 76.063 26.4097C75.7746 26.5951 75.4537 26.6658 75.1005 26.6216ZM92.7387 26.6658C92.3119 26.6658 91.944 26.5215 91.6349 26.2331C91.3259 25.9476 91.164 25.5914 91.1493 25.1646C91.1493 24.782 91.2699 24.4391 91.5113 24.1359C91.7556 23.8357 92.0617 23.6562 92.4296 23.5973C92.4443 21.0366 92.437 17.7915 92.4076 13.8621C92.0543 13.7885 91.76 13.6119 91.5245 13.3323C91.2891 13.0527 91.1713 12.7215 91.1713 12.3389C91.1713 11.9121 91.3259 11.5515 91.6349 11.2572C91.944 10.9629 92.3119 10.8157 92.7387 10.8157L95.2332 10.8378C95.66 10.8378 96.0205 10.9923 96.3149 11.3014C96.6092 11.6104 96.7564 11.9783 96.7564 12.4051C96.7564 12.773 96.6342 13.0968 96.3899 13.3764C96.1486 13.6561 95.8439 13.8327 95.476 13.9062C95.5202 17.7768 95.5349 20.985 95.5202 23.5311C95.8881 23.5899 96.1927 23.7592 96.4341 24.0388C96.6784 24.3184 96.8079 24.6422 96.8226 25.0101C96.8226 25.4369 96.6784 25.8048 96.3899 26.1139C96.1044 26.4229 95.7483 26.5848 95.3215 26.5995L92.7387 26.6658ZM104.461 26.5995C102.459 26.5995 100.818 26.5701 99.5379 26.5112C99.1258 26.4965 98.7873 26.3346 98.5224 26.0256C98.2546 25.7165 98.1295 25.356 98.1471 24.9439C98.1618 24.5318 98.3237 24.1786 98.6328 23.8843C99.0596 23.4133 99.7513 22.5303 100.708 21.2352C104.313 17.1439 106.344 14.6862 106.801 13.8621C103.607 13.921 101.266 13.8989 99.7763 13.7959C99.3672 13.7664 99.0301 13.5972 98.7652 13.2881C98.5003 12.9791 98.3826 12.6112 98.412 12.1844C98.4385 11.7576 98.6033 11.4088 98.9065 11.138C99.2097 10.8643 99.5599 10.7421 99.9573 10.7715C100.929 10.8304 101.932 10.8672 102.968 10.8819C104.004 10.8966 105.197 10.8893 106.545 10.8598C107.893 10.8304 108.898 10.8157 109.56 10.8157C109.954 10.8157 110.296 10.9629 110.584 11.2572C110.873 11.5515 111.017 11.9047 111.017 12.3168C111.017 12.6995 110.907 13.0306 110.686 13.3102C110.656 13.3544 110.634 13.3985 110.62 13.4427C110.149 14.2374 109.548 15.0865 108.818 15.9901C108.088 16.8967 106.165 19.2411 103.048 23.0233L102.606 23.5752C103.092 23.5752 103.688 23.5899 104.394 23.6194C107.202 23.5605 108.895 23.5311 109.472 23.5311C109.869 23.5311 110.211 23.6782 110.496 23.9726C110.782 24.2669 110.924 24.6157 110.924 25.0189C110.924 25.4251 110.782 25.7754 110.496 26.0697C110.211 26.3641 109.869 26.5112 109.472 26.5112C108.927 26.5112 107.257 26.5407 104.461 26.5995ZM111.564 25.6944C111.388 25.2971 111.381 24.9071 111.542 24.5244L116.487 11.787C116.605 11.5074 116.789 11.2793 117.039 11.1027C117.289 10.9261 117.569 10.8304 117.878 10.8157C118.202 10.7568 118.523 10.8113 118.84 10.9791C119.155 11.1498 119.394 11.3897 119.556 11.6987L121.189 15.7606L123.11 20.5067L124.633 24.4803C124.795 24.8777 124.792 25.2706 124.624 25.6591C124.454 26.0506 124.167 26.3273 123.763 26.4892C123.357 26.651 122.955 26.6466 122.558 26.4759C122.161 26.3081 121.881 26.0329 121.719 25.6503L120.439 22.7364C118.79 22.6922 117.157 22.7069 115.538 22.7805L114.456 25.6944C114.28 26.0771 113.993 26.3523 113.595 26.5201C113.198 26.6908 112.801 26.6908 112.403 26.5201C112.006 26.3523 111.726 26.0771 111.564 25.6944ZM116.818 19.6237C117.378 19.6237 118.187 19.6237 119.247 19.6237L118.077 16.4449L116.818 19.6237ZM136.112 25.4295C135.774 23.9137 135.479 22.7731 135.229 22.0079C134.964 21.3456 134.663 20.86 134.324 20.5509C133.956 20.2124 133.426 19.999 132.735 19.9107C132.573 19.9254 132.352 19.9357 132.072 19.9416C131.793 19.9505 131.646 19.9549 131.631 19.9549C131.057 19.9696 130.615 19.9843 130.306 19.999H129.644C129.659 22.0005 129.666 23.6929 129.666 25.0763C129.666 25.5031 129.516 25.8666 129.216 26.1669C128.913 26.47 128.548 26.6216 128.121 26.6216C127.694 26.6216 127.329 26.47 127.026 26.1669C126.726 25.8666 126.576 25.5031 126.576 25.0763C126.576 23.4133 126.561 21.2058 126.532 18.4537C126.502 15.7017 126.487 13.6413 126.487 12.2727C126.487 11.8459 126.639 11.4809 126.942 11.1777C127.242 10.8775 127.606 10.7274 128.033 10.7274H128.143C130.248 10.4625 132.205 10.4699 134.015 10.7495C135.413 10.9555 136.517 11.3455 137.326 11.9195C138.548 12.773 139.122 13.921 139.048 15.3632C138.96 16.776 138.224 17.8945 136.841 18.7186C137.37 19.3368 137.797 20.0755 138.121 20.935C138.445 21.7974 138.776 23.0454 139.114 24.679C139.217 25.091 139.159 25.481 138.938 25.849C138.717 26.2169 138.401 26.4524 137.989 26.5554C137.577 26.6584 137.187 26.5995 136.819 26.3788C136.451 26.158 136.215 25.8416 136.112 25.4295ZM129.6 16.9085H129.666C130.888 16.7613 131.933 16.7319 132.801 16.8202C132.919 16.8055 133.022 16.7907 133.11 16.776C133.978 16.6289 134.677 16.4081 135.207 16.1138C135.693 15.8341 135.943 15.5251 135.958 15.1866C135.987 14.8923 135.862 14.6494 135.582 14.4581C135.141 14.1491 134.457 13.9283 133.529 13.7959C132.411 13.6193 131.094 13.5825 129.578 13.6855C129.578 14.5832 129.585 15.6575 129.6 16.9085ZM143.441 26.5995C143.338 26.5995 143.243 26.5922 143.154 26.5775C142.742 26.5627 142.389 26.4038 142.095 26.1006C141.8 25.8004 141.653 25.4443 141.653 25.0322C141.668 24.3699 141.66 22.2536 141.631 18.6833C141.602 15.116 141.616 12.9938 141.675 12.3168C141.69 11.9195 141.855 11.5736 142.17 11.2793C142.488 10.9849 142.86 10.8451 143.287 10.8598C143.419 10.8157 143.552 10.7936 143.684 10.7936C144.258 10.7348 144.68 10.698 144.951 10.6832C145.225 10.6685 145.674 10.6494 146.298 10.6259C146.925 10.6052 147.454 10.6317 147.887 10.7053C148.323 10.7789 148.816 10.8775 149.366 11.0011C149.92 11.1277 150.439 11.3234 150.925 11.5883C151.41 11.8532 151.852 12.1696 152.249 12.5376C153.015 13.2293 153.591 14.0608 153.98 15.0321C154.371 16.0034 154.56 17.0586 154.545 18.1977C154.53 19.3397 154.364 20.392 154.046 21.3544C153.731 22.3199 153.243 23.1955 152.58 23.9814C151.918 24.7702 151.145 25.3854 150.262 25.8269C149.335 26.2684 148.114 26.5259 146.598 26.5995C146.289 26.6142 145.737 26.6187 144.942 26.6128C144.148 26.6039 143.647 26.5995 143.441 26.5995ZM146.466 23.5752C147.555 23.5016 148.364 23.3397 148.894 23.0896C149.777 22.6628 150.454 21.949 150.925 20.9483C151.396 19.9475 151.565 18.832 151.432 17.6016C151.3 16.3743 150.881 15.4368 150.174 14.7892C149.6 14.2742 148.875 13.9504 147.998 13.8179C147.123 13.6855 146.031 13.6708 144.722 13.7738C144.707 15.1719 144.699 16.2462 144.699 16.9968C144.699 17.7473 144.707 18.8585 144.722 20.3301C144.736 21.8018 144.744 22.8762 144.744 23.5531C145.465 23.5826 146.039 23.5899 146.466 23.5752Z" fill="black"/>
</g>
</g>
</g>
</g>
<g clip-path="url(#clip7_1_114)">
<g clip-path="url(#clip8_1_114)">
<path d="M162.332 18.6C162.332 8.3601 170.634 0.0589142 180.873 0.0589142C191.113 0.0589142 199.415 8.3601 199.415 18.6C199.415 28.8399 191.113 37.1411 180.873 37.1411C170.634 37.1411 162.332 28.8399 162.332 18.6ZM180.873 35.686C190.31 35.686 197.96 28.0363 197.959 18.6C197.959 9.16364 190.31 1.51363 180.873 1.51363C171.437 1.51363 163.787 9.16325 163.787 18.6C163.787 28.0363 171.437 35.6864 180.873 35.686Z" fill="black"/>
<g clip-path="url(#clip9_1_114)">
<g clip-path="url(#clip10_1_114)">
<path d="M177.35 16.5653V20.6345L180.873 22.6687L184.397 20.6347V16.5653L180.873 14.5309L177.35 16.5653ZM182.912 19.7767L180.873 20.9533L178.835 19.7767V17.4231L180.873 16.2463L182.912 17.4231V19.7767Z" fill="black"/>
<path d="M180.873 9.88582L173.327 14.2431V22.957L180.873 27.314L188.42 22.957V14.2431L180.873 9.88582ZM186.879 22.0669L180.873 25.5341L174.868 22.0669V15.1326L180.873 11.6654L186.879 15.1326V22.0669Z" fill="black"/>
<path d="M175.345 15.4079V21.7916L180.873 24.9832L186.402 21.7916V15.4079L180.873 12.2163L175.345 15.4079ZM184.874 20.9101L180.873 23.2197L176.873 20.9101V16.29L180.873 13.98L184.874 16.29V20.9101Z" fill="black"/>
</g>
</g>
</g>
</g>
</g>
</g>
</g>
<path d="M3.73828 35.8789H2.25781V35.1016H3.73828C3.99609 35.1016 4.20443 35.0599 4.36328 34.9766C4.52214 34.8932 4.63802 34.7786 4.71094 34.6328C4.78646 34.4844 4.82422 34.3151 4.82422 34.125C4.82422 33.9453 4.78646 33.7773 4.71094 33.6211C4.63802 33.4622 4.52214 33.3346 4.36328 33.2383C4.20443 33.1419 3.99609 33.0938 3.73828 33.0938H2.55859V38H1.57812V32.3125H3.73828C4.17839 32.3125 4.55208 32.3906 4.85938 32.5469C5.16927 32.7005 5.40495 32.9141 5.56641 33.1875C5.72786 33.4583 5.80859 33.7682 5.80859 34.1172C5.80859 34.4844 5.72786 34.7995 5.56641 35.0625C5.40495 35.3255 5.16927 35.5273 4.85938 35.668C4.55208 35.8086 4.17839 35.8789 3.73828 35.8789ZM6.35938 35.9336V35.8438C6.35938 35.5391 6.40365 35.2565 6.49219 34.9961C6.58073 34.7331 6.70833 34.5052 6.875 34.3125C7.04427 34.1172 7.25 33.9661 7.49219 33.8594C7.73698 33.75 8.01302 33.6953 8.32031 33.6953C8.63021 33.6953 8.90625 33.75 9.14844 33.8594C9.39323 33.9661 9.60026 34.1172 9.76953 34.3125C9.9388 34.5052 10.0677 34.7331 10.1562 34.9961C10.2448 35.2565 10.2891 35.5391 10.2891 35.8438V35.9336C10.2891 36.2383 10.2448 36.5208 10.1562 36.7812C10.0677 37.0417 9.9388 37.2695 9.76953 37.4648C9.60026 37.6576 9.39453 37.8086 9.15234 37.918C8.91016 38.0247 8.63542 38.0781 8.32812 38.0781C8.01823 38.0781 7.74089 38.0247 7.49609 37.918C7.25391 37.8086 7.04818 37.6576 6.87891 37.4648C6.70964 37.2695 6.58073 37.0417 6.49219 36.7812C6.40365 36.5208 6.35938 36.2383 6.35938 35.9336ZM7.30078 35.8438V35.9336C7.30078 36.1237 7.32031 36.3034 7.35938 36.4727C7.39844 36.6419 7.45964 36.7904 7.54297 36.918C7.6263 37.0456 7.73307 37.1458 7.86328 37.2188C7.99349 37.2917 8.14844 37.3281 8.32812 37.3281C8.5026 37.3281 8.65365 37.2917 8.78125 37.2188C8.91146 37.1458 9.01823 37.0456 9.10156 36.918C9.1849 36.7904 9.24609 36.6419 9.28516 36.4727C9.32682 36.3034 9.34766 36.1237 9.34766 35.9336V35.8438C9.34766 35.6562 9.32682 35.4792 9.28516 35.3125C9.24609 35.1432 9.18359 34.9935 9.09766 34.8633C9.01432 34.7331 8.90755 34.6315 8.77734 34.5586C8.64974 34.4831 8.4974 34.4453 8.32031 34.4453C8.14323 34.4453 7.98958 34.4831 7.85938 34.5586C7.73177 34.6315 7.6263 34.7331 7.54297 34.8633C7.45964 34.9935 7.39844 35.1432 7.35938 35.3125C7.32031 35.4792 7.30078 35.6562 7.30078 35.8438ZM12.2266 37.0625L13.2031 33.7734H13.8047L13.6406 34.7578L12.6562 38H12.1172L12.2266 37.0625ZM11.6523 33.7734L12.4141 37.0781L12.4766 38H11.875L10.7305 33.7734H11.6523ZM14.7188 37.0391L15.457 33.7734H16.375L15.2344 38H14.6328L14.7188 37.0391ZM13.9062 33.7734L14.8711 37.0234L14.9922 38H14.4531L13.457 34.7539L13.293 33.7734H13.9062ZM18.8789 38.0781C18.5664 38.0781 18.2839 38.0273 18.0312 37.9258C17.7812 37.8216 17.5677 37.6771 17.3906 37.4922C17.2161 37.3073 17.082 37.0898 16.9883 36.8398C16.8945 36.5898 16.8477 36.3203 16.8477 36.0312V35.875C16.8477 35.5443 16.8958 35.2448 16.9922 34.9766C17.0885 34.7083 17.2227 34.4792 17.3945 34.2891C17.5664 34.0964 17.7695 33.9492 18.0039 33.8477C18.2383 33.7461 18.4922 33.6953 18.7656 33.6953C19.0677 33.6953 19.332 33.7461 19.5586 33.8477C19.7852 33.9492 19.9727 34.0924 20.1211 34.2773C20.2721 34.4596 20.3841 34.6771 20.457 34.9297C20.5326 35.1823 20.5703 35.4609 20.5703 35.7656V36.168H17.3047V35.4922H19.6406V35.418C19.6354 35.2487 19.6016 35.0898 19.5391 34.9414C19.4792 34.793 19.3867 34.6732 19.2617 34.582C19.1367 34.4909 18.9701 34.4453 18.7617 34.4453C18.6055 34.4453 18.4661 34.4792 18.3438 34.5469C18.224 34.612 18.1237 34.707 18.043 34.832C17.9622 34.957 17.8997 35.1081 17.8555 35.2852C17.8138 35.4596 17.793 35.6562 17.793 35.875V36.0312C17.793 36.2161 17.8177 36.388 17.8672 36.5469C17.9193 36.7031 17.9948 36.8398 18.0938 36.957C18.1927 37.0742 18.3125 37.1667 18.4531 37.2344C18.5938 37.2995 18.7539 37.332 18.9336 37.332C19.1602 37.332 19.362 37.2865 19.5391 37.1953C19.7161 37.1042 19.8698 36.9753 20 36.8086L20.4961 37.2891C20.4049 37.4219 20.2865 37.5495 20.1406 37.6719C19.9948 37.7917 19.8164 37.8893 19.6055 37.9648C19.3971 38.0404 19.1549 38.0781 18.8789 38.0781ZM22.25 34.5781V38H21.3086V33.7734H22.207L22.25 34.5781ZM23.543 33.7461L23.5352 34.6211C23.4779 34.6107 23.4154 34.6029 23.3477 34.5977C23.2826 34.5924 23.2174 34.5898 23.1523 34.5898C22.9909 34.5898 22.849 34.6133 22.7266 34.6602C22.6042 34.7044 22.5013 34.7695 22.418 34.8555C22.3372 34.9388 22.2747 35.0404 22.2305 35.1602C22.1862 35.2799 22.1602 35.4141 22.1523 35.5625L21.9375 35.5781C21.9375 35.3125 21.9635 35.0664 22.0156 34.8398C22.0677 34.6133 22.1458 34.4141 22.25 34.2422C22.3568 34.0703 22.4896 33.9362 22.6484 33.8398C22.8099 33.7435 22.9961 33.6953 23.207 33.6953C23.2643 33.6953 23.3255 33.7005 23.3906 33.7109C23.4583 33.7214 23.5091 33.7331 23.543 33.7461ZM25.918 38.0781C25.6055 38.0781 25.3229 38.0273 25.0703 37.9258C24.8203 37.8216 24.6068 37.6771 24.4297 37.4922C24.2552 37.3073 24.1211 37.0898 24.0273 36.8398C23.9336 36.5898 23.8867 36.3203 23.8867 36.0312V35.875C23.8867 35.5443 23.9349 35.2448 24.0312 34.9766C24.1276 34.7083 24.2617 34.4792 24.4336 34.2891C24.6055 34.0964 24.8086 33.9492 25.043 33.8477C25.2773 33.7461 25.5312 33.6953 25.8047 33.6953C26.1068 33.6953 26.3711 33.7461 26.5977 33.8477C26.8242 33.9492 27.0117 34.0924 27.1602 34.2773C27.3112 34.4596 27.4232 34.6771 27.4961 34.9297C27.5716 35.1823 27.6094 35.4609 27.6094 35.7656V36.168H24.3438V35.4922H26.6797V35.418C26.6745 35.2487 26.6406 35.0898 26.5781 34.9414C26.5182 34.793 26.4258 34.6732 26.3008 34.582C26.1758 34.4909 26.0091 34.4453 25.8008 34.4453C25.6445 34.4453 25.5052 34.4792 25.3828 34.5469C25.263 34.612 25.1628 34.707 25.082 34.832C25.0013 34.957 24.9388 35.1081 24.8945 35.2852C24.8529 35.4596 24.832 35.6562 24.832 35.875V36.0312C24.832 36.2161 24.8568 36.388 24.9062 36.5469C24.9583 36.7031 25.0339 36.8398 25.1328 36.957C25.2318 37.0742 25.3516 37.1667 25.4922 37.2344C25.6328 37.2995 25.793 37.332 25.9727 37.332C26.1992 37.332 26.401 37.2865 26.5781 37.1953C26.7552 37.1042 26.9089 36.9753 27.0391 36.8086L27.5352 37.2891C27.444 37.4219 27.3255 37.5495 27.1797 37.6719C27.0339 37.7917 26.8555 37.8893 26.6445 37.9648C26.4362 38.0404 26.194 38.0781 25.918 38.0781ZM30.9219 37.125V32H31.8672V38H31.0117L30.9219 37.125ZM28.1719 35.9336V35.8516C28.1719 35.5312 28.2096 35.2396 28.2852 34.9766C28.3607 34.7109 28.4701 34.4831 28.6133 34.293C28.7565 34.1003 28.931 33.9531 29.1367 33.8516C29.3424 33.7474 29.5742 33.6953 29.832 33.6953C30.0872 33.6953 30.3112 33.7448 30.5039 33.8438C30.6966 33.9427 30.8607 34.0846 30.9961 34.2695C31.1315 34.4518 31.2396 34.6706 31.3203 34.9258C31.401 35.1784 31.4583 35.4596 31.4922 35.7695V36.0312C31.4583 36.3333 31.401 36.6094 31.3203 36.8594C31.2396 37.1094 31.1315 37.3255 30.9961 37.5078C30.8607 37.6901 30.6953 37.8307 30.5 37.9297C30.3073 38.0286 30.082 38.0781 29.8242 38.0781C29.569 38.0781 29.3385 38.0247 29.1328 37.918C28.9297 37.8112 28.7565 37.6615 28.6133 37.4688C28.4701 37.276 28.3607 37.0495 28.2852 36.7891C28.2096 36.526 28.1719 36.2409 28.1719 35.9336ZM29.1133 35.8516V35.9336C29.1133 36.1263 29.1302 36.306 29.1641 36.4727C29.2005 36.6393 29.2565 36.7865 29.332 36.9141C29.4076 37.0391 29.5052 37.138 29.625 37.2109C29.7474 37.2812 29.8932 37.3164 30.0625 37.3164C30.276 37.3164 30.4518 37.2695 30.5898 37.1758C30.7279 37.082 30.8359 36.9557 30.9141 36.7969C30.9948 36.6354 31.0495 36.4557 31.0781 36.2578V35.5508C31.0625 35.3971 31.0299 35.2539 30.9805 35.1211C30.9336 34.9883 30.8698 34.8724 30.7891 34.7734C30.7083 34.6719 30.6081 34.5938 30.4883 34.5391C30.3711 34.4818 30.2318 34.4531 30.0703 34.4531C29.8984 34.4531 29.7526 34.4896 29.6328 34.5625C29.513 34.6354 29.4141 34.7357 29.3359 34.8633C29.2604 34.9909 29.2044 35.1393 29.168 35.3086C29.1315 35.4779 29.1133 35.6589 29.1133 35.8516ZM34.8477 32H35.7891V37.0977L35.6992 38H34.8477V32ZM38.5469 35.8477V35.9297C38.5469 36.2422 38.5117 36.5299 38.4414 36.793C38.3737 37.0534 38.2695 37.2799 38.1289 37.4727C37.9909 37.6654 37.819 37.8151 37.6133 37.9219C37.4102 38.026 37.1745 38.0781 36.9062 38.0781C36.6432 38.0781 36.4141 38.0286 36.2188 37.9297C36.0234 37.8307 35.8594 37.6901 35.7266 37.5078C35.5964 37.3255 35.4909 37.1081 35.4102 36.8555C35.3294 36.6029 35.2721 36.3242 35.2383 36.0195V35.7578C35.2721 35.4505 35.3294 35.1719 35.4102 34.9219C35.4909 34.6693 35.5964 34.4518 35.7266 34.2695C35.8594 34.0846 36.0221 33.9427 36.2148 33.8438C36.4102 33.7448 36.638 33.6953 36.8984 33.6953C37.1693 33.6953 37.4076 33.7474 37.6133 33.8516C37.8216 33.9557 37.9948 34.1042 38.1328 34.2969C38.2708 34.487 38.3737 34.7135 38.4414 34.9766C38.5117 35.2396 38.5469 35.5299 38.5469 35.8477ZM37.6055 35.9297V35.8477C37.6055 35.6576 37.5898 35.4792 37.5586 35.3125C37.5273 35.1432 37.4753 34.9948 37.4023 34.8672C37.332 34.7396 37.2357 34.6393 37.1133 34.5664C36.9935 34.4909 36.8438 34.4531 36.6641 34.4531C36.4974 34.4531 36.3542 34.4818 36.2344 34.5391C36.1146 34.5964 36.0143 34.6745 35.9336 34.7734C35.8529 34.8724 35.7891 34.987 35.7422 35.1172C35.6979 35.2474 35.668 35.388 35.6523 35.5391V36.2461C35.6758 36.4414 35.7253 36.6211 35.8008 36.7852C35.8789 36.9466 35.9883 37.0768 36.1289 37.1758C36.2695 37.2721 36.4505 37.3203 36.6719 37.3203C36.8464 37.3203 36.9935 37.2852 37.1133 37.2148C37.2331 37.1445 37.3281 37.0469 37.3984 36.9219C37.4714 36.7943 37.5234 36.6458 37.5547 36.4766C37.5885 36.3073 37.6055 36.125 37.6055 35.9297ZM40.5234 37.5391L41.6719 33.7734H42.6797L40.9844 38.6445C40.9453 38.7487 40.8945 38.862 40.832 38.9844C40.7695 39.1068 40.6875 39.2227 40.5859 39.332C40.487 39.444 40.3633 39.5339 40.2148 39.6016C40.0664 39.6719 39.8867 39.707 39.6758 39.707C39.5924 39.707 39.5117 39.6992 39.4336 39.6836C39.3581 39.6706 39.2865 39.6562 39.2188 39.6406L39.2148 38.9219C39.2409 38.9245 39.2721 38.9271 39.3086 38.9297C39.3477 38.9323 39.3789 38.9336 39.4023 38.9336C39.5586 38.9336 39.6888 38.9141 39.793 38.875C39.8971 38.8385 39.9818 38.7786 40.0469 38.6953C40.1146 38.612 40.1719 38.5 40.2188 38.3594L40.5234 37.5391ZM39.875 33.7734L40.8789 36.9375L41.0469 37.9297L40.3945 38.0977L38.8594 33.7734H39.875Z" fill="black"/>
<g clip-path="url(#clip11_1_114)">
<path d="M59.5667 32.3267C59.5667 32.3267 59.55 32.3267 59.5433 32.3267C59.5367 32.3267 59.5267 32.3267 59.52 32.3267C57.9633 32.3267 56.9933 33.2967 56.9933 34.86V35.7033C56.9933 37.2667 57.96 38.2367 59.52 38.2367C59.5267 38.2367 59.5367 38.2367 59.5433 38.2367C59.55 38.2367 59.56 38.2367 59.5667 38.2367C61.1233 38.2367 62.0933 37.2667 62.0933 35.7033V34.86C62.0933 33.2967 61.1233 32.3267 59.5667 32.3267ZM61.0033 35.7633C61.0033 36.79 60.47 37.3833 59.5433 37.3933C58.6167 37.3833 58.0833 36.79 58.0833 35.7633V34.8033C58.0833 33.7767 58.6167 33.1833 59.5433 33.1733C60.47 33.1833 61.0033 33.7767 61.0033 34.8033V35.7633ZM74.5267 33.8333C74.5267 33.8333 74.5067 33.8333 74.4967 33.8333C74.49 33.8333 74.4867 33.8333 74.48 33.8333C73.89 33.8333 73.47 34.0333 73.2633 34.4167L73.2 34.5333V33.9333H72.1933V38.12H73.25V35.6267C73.25 35.04 73.5667 34.7033 74.1133 34.6933C74.6367 34.7033 74.9367 35.0333 74.9367 35.6033V38.12H75.9933V35.4233C75.9933 34.4267 75.4467 33.8333 74.53 33.8333H74.5267ZM86 33.2433V32.4433H82.5133V33.2433H83.7367V37.3167H82.5133V38.1167H86V37.3167H84.7767V33.2433H86ZM79.75 32.4433H78.6567L76.6233 38.1233H77.7667L78.1567 36.9067H80.3767V36.92L80.7667 38.1267H81.91L79.8733 32.4467H79.7533L79.75 32.4433ZM78.4067 36.1033L79.2633 33.42L80.1133 36.1033H78.4067ZM65.2567 33.8333C65.2567 33.8333 65.24 33.8333 65.2333 33.8333C65.2233 33.8333 65.2167 33.8333 65.21 33.8333C64.68 33.8333 64.2233 34.0533 63.9833 34.42L63.9233 34.5133V33.9333H62.9167V39.5633H63.9733V37.5967L64.0333 37.6867C64.26 38.0233 64.7033 38.2233 65.22 38.2233C65.23 38.2233 65.2367 38.2233 65.2467 38.2233C65.2533 38.2233 65.26 38.2233 65.27 38.2233C66.14 38.2233 67.0167 37.6567 67.0167 36.3867V35.6733C67.0167 34.76 66.4767 33.8367 65.2633 33.8367L65.2567 33.8333ZM65.9567 36.3333C65.9567 37 65.5733 37.4133 64.9533 37.4267C64.3767 37.4167 63.9733 36.9767 63.9733 36.35V35.72C63.9733 35.0867 64.38 34.64 64.9633 34.6267C65.5767 34.6367 65.9567 35.0533 65.9567 35.72V36.3333ZM69.64 33.8333C69.62 33.8333 69.6 33.8367 69.58 33.8367C69.56 33.8367 69.54 33.8333 69.52 33.8333C68.33 33.8333 67.5933 34.5767 67.5933 35.77V36.3567C67.5933 37.5067 68.34 38.22 69.5367 38.22C69.5633 38.22 69.5867 38.22 69.61 38.2167C69.6267 38.2167 69.64 38.22 69.6567 38.22C70.46 38.22 71.02 37.9267 71.3767 37.32L70.6667 36.91C70.43 37.26 70.1133 37.5233 69.66 37.5233C69.0533 37.5233 68.69 37.15 68.69 36.52V36.3533H71.5033V35.66C71.5033 34.5467 70.7733 33.83 69.64 33.83V33.8333ZM68.6867 35.68V35.58C68.6867 34.9133 69.0033 34.54 69.58 34.5133C70.1333 34.54 70.4667 34.9067 70.4667 35.51V35.6767H68.6867V35.68Z" fill="black"/>
<path d="M55.0702 34.0267C55.2935 33.3567 55.2169 32.6233 54.8602 32.0133C54.3235 31.08 53.2435 30.6 52.1902 30.8233C51.7202 30.2967 51.0469 29.9967 50.3402 30C49.2635 30 48.3069 30.6933 47.9735 31.7167C47.2802 31.86 46.6835 32.2933 46.3335 32.9067C45.7935 33.84 45.9169 35.0133 46.6402 35.8133C46.4169 36.4833 46.4935 37.2167 46.8502 37.8233C47.3869 38.76 48.4669 39.24 49.5235 39.0167C49.9902 39.5433 50.6635 39.8467 51.3702 39.8433C52.4469 39.8433 53.4035 39.15 53.7369 38.1267C54.4302 37.9833 55.0269 37.55 55.3735 36.9367C55.9169 36.0033 55.7935 34.83 55.0702 34.03V34.0267ZM54.3035 32.3367C54.5169 32.71 54.5969 33.1467 54.5235 33.57C54.5102 33.56 54.4835 33.5467 54.4669 33.5367L52.5069 32.4033C52.4069 32.3467 52.2835 32.3467 52.1835 32.4033L49.8869 33.73V32.7567L51.7835 31.66C52.6669 31.15 53.7935 31.4533 54.3035 32.3367ZM49.8869 34.36L50.8535 33.8L51.8202 34.36V35.4767L50.8535 36.0367L49.8869 35.4767V34.36ZM50.3369 30.6433C50.7702 30.6433 51.1869 30.7933 51.5202 31.07C51.5069 31.0767 51.4802 31.0933 51.4602 31.1033L49.5002 32.2333C49.4002 32.29 49.3402 32.3967 49.3402 32.5133V35.1667L48.4969 34.68V32.4867C48.4969 31.4667 49.3202 30.6433 50.3402 30.64L50.3369 30.6433ZM46.8935 33.23C47.1102 32.8567 47.4469 32.57 47.8535 32.42V34.75C47.8535 34.8667 47.9135 34.97 48.0135 35.03L50.3069 36.3533L49.4602 36.8433L47.5669 35.75C46.6869 35.24 46.3835 34.1133 46.8935 33.23ZM47.4102 37.5067C47.1935 37.1367 47.1169 36.6967 47.1902 36.2733C47.2035 36.2833 47.2302 36.2967 47.2469 36.3067L49.2069 37.44C49.3069 37.4967 49.4302 37.4967 49.5302 37.44L51.8235 36.1133V37.0867L49.9269 38.18C49.0435 38.6867 47.9169 38.3867 47.4069 37.5067H47.4102ZM51.3735 39.2C50.9435 39.2 50.5235 39.05 50.1935 38.7733C50.2069 38.7667 50.2369 38.75 50.2535 38.74L52.2135 37.61C52.3135 37.5533 52.3769 37.4467 52.3735 37.33V34.68L53.2169 35.1667V37.3567C53.2169 38.3767 52.3902 39.2033 51.3735 39.2033V39.2ZM54.8202 36.6133C54.6035 36.9867 54.2635 37.2733 53.8602 37.42V35.09C53.8602 34.9733 53.8002 34.8667 53.7002 34.81L51.4035 33.4833L52.2469 32.9967L54.1435 34.09C55.0269 34.6 55.3269 35.7267 54.8169 36.61L54.8202 36.6133Z" fill="black"/>
</g>
<defs>
<clipPath id="clip0_1_114">
<rect width="200" height="37.2" fill="white"/>
</clipPath>
<clipPath id="clip1_1_114">
<rect width="198.829" height="37.082" fill="white" transform="translate(0.585449 0.0589142)"/>
</clipPath>
<clipPath id="clip2_1_114">
<rect width="198.829" height="37.082" fill="white" transform="translate(0.585449 0.0589142)"/>
</clipPath>
<clipPath id="clip3_1_114">
<rect width="154.13" height="16.1317" fill="white" transform="translate(0.585449 10.5341)"/>
</clipPath>
<clipPath id="clip4_1_114">
<rect width="154.13" height="16.1317" fill="white" transform="translate(0.585449 10.5341)"/>
</clipPath>
<clipPath id="clip5_1_114">
<rect width="154.13" height="16.1317" fill="white" transform="translate(0.585449 10.5341)"/>
</clipPath>
<clipPath id="clip6_1_114">
<rect width="154.13" height="16.1317" fill="white" transform="translate(0.585449 10.5341)"/>
</clipPath>
<clipPath id="clip7_1_114">
<rect width="37.082" height="37.082" fill="white" transform="translate(162.332 0.0589142)"/>
</clipPath>
<clipPath id="clip8_1_114">
<rect width="37.082" height="37.082" fill="white" transform="translate(162.332 0.0589142)"/>
</clipPath>
<clipPath id="clip9_1_114">
<rect width="15.0936" height="17.4282" fill="white" transform="translate(173.327 9.88582)"/>
</clipPath>
<clipPath id="clip10_1_114">
<rect width="15.0936" height="17.4282" fill="white" transform="translate(173.327 9.88582)"/>
</clipPath>
<clipPath id="clip11_1_114">
<rect width="40" height="9.84333" fill="white" transform="translate(46 30)"/>
</clipPath>
</defs>
</svg>
